<?xml version="1.0" encoding="UTF-8"?>
<!-- Created with Inkscape (http://www.inkscape.org/) -->
<svg width="256" height="128" version="1.1" viewBox="0 0 256 128" xmlns="http://www.w3.org/2000/svg" xmlns:xlink="http://www.w3.org/1999/xlink">
 <defs>
  <linearGradient id="linearGradient12" x1="110.33" x2="102.16" y1="69.749" y2="-4.3233" gradientUnits="userSpaceOnUse">
   <stop stop-color="#4f00aa" offset="0"/>
   <stop stop-color="#e60034" offset=".28712"/>
   <stop stop-color="#ff7718" offset=".81297"/>
   <stop stop-color="#ffe01e" offset="1"/>
   <stop stop-color="#e9ff58" offset="1"/>
  </linearGradient>
  <radialGradient id="radialGradient17" cx="118.8" cy="96.137" r="28.788" gradientTransform="matrix(1 0 0 1.0236 0 -2.273)" gradientUnits="userSpaceOnUse">
   <stop stop-color="#fff" offset="0"/>
   <stop stop-color="#fff9d4" offset=".25878"/>
   <stop stop-color="#ffb00c" offset=".7282"/>
   <stop stop-color="#ff3719" offset="1"/>
  </radialGradient>
  <linearGradient id="linearGradient22" x1="190.7" x2="190.7" y1="129.42" y2="69.79" gradientUnits="userSpaceOnUse">
   <stop stop-color="#4f00aa" offset="0"/>
   <stop stop-color="#e60034" offset=".28712"/>
   <stop stop-color="#ff7718" offset=".8497"/>
   <stop stop-color="#ffe01e" offset="1"/>
   <stop stop-color="#e9ff58" offset="1"/>
  </linearGradient>
  <linearGradient id="linearGradient24" x1="269.23" x2="257.67" y1="99.425" y2="32.028" gradientUnits="userSpaceOnUse">
   <stop stop-color="#4f00aa" offset="0"/>
   <stop stop-color="#e60034" offset=".28712"/>
   <stop stop-color="#ff7718" offset=".78691"/>
   <stop stop-color="#ffe01e" offset=".95466"/>
   <stop stop-color="#e9ff58" offset="1"/>
  </linearGradient>
 </defs>
 <g stroke-linecap="round" stroke-linejoin="round">
  <g stroke="#fff">
   <path d="m55.877 2.5645c-12.806 11.576-25.057 23.465-52.986 28.4l0.56055 4.6289c13.791-0.66611 17.672-1.7771 22.605-2.8418 2.3928 9.5401 4.4465 16.467 2.9336 31.176 0 0 8.1825 4.3375 13.355-0.82617 8.1247-8.11-5.5996-32.793-5.5996-32.793 10.378-2.9292 22.079-9.1384 29.115-13.416l-9.9844-14.328zm11.965 21.811a20.878 19.489 76.3 0 0-5.5352 0.48047 20.878 19.489 76.3 0 0-13.988 24.898 20.878 19.489 76.3 0 0 23.879 15.67 20.878 19.489 76.3 0 0 11.504-8.4688 18.833 18.392 68.441 0 0 20.047 8.4551 18.833 18.392 68.441 0 0 13.371-22.576 18.833 18.392 68.441 0 0-22.408-13.973 18.833 18.392 68.441 0 0-10.316 6.9141 20.878 19.489 76.3 0 0-16.553-11.4zm2.8145 15.602a9.8969 9.0385 76.3 0 1 8.5566 7.6875 9.8969 9.0385 76.3 0 1-6.4355 11.758 9.8969 9.0385 76.3 0 1-11.125-7.4746 9.8969 9.0385 76.3 0 1 6.4355-11.756 9.8969 9.0385 76.3 0 1 2.5684-0.21484zm25.129 1.1992a8.6198 8.1578 65.325 0 1 7.7578 6.666 8.6198 8.1578 65.325 0 1-5.8359 10.191 8.6198 8.1578 65.325 0 1-10.088-6.4805 8.6198 8.1578 65.325 0 1 5.8379-10.191 8.6198 8.1578 65.325 0 1 2.3281-0.18555z" fill="url(#linearGradient12)" stroke-width="1.8382"/>
   <path d="m148.67 70.52-1.8144 10.123c3.8501 2.7002 8.7518 4.1781 16.256 6.1562-3.001 10.945-4.6255 21.111-12.66 33.807l14.719 2.5976c4.9386-10.813 7.4434-21.991 7.9238-33.475l16.682-0.53711-0.03907-9.0566c-14.83 0.37405-27.213-2.8805-41.066-9.6152zm-78.441 0.625-0.45508 16.346-12.234 0.57617-1.8008-16.916-10.393 1.1172c1.201 19.59-0.90407 35.433-2.1641 51.508l11.914 0.46875 2.0664-25.625 14.492-0.73828 5.0078 25.758 13.07-1.6504c-5.0355-16.709-7.4858-31.068-8.3008-50.631l-11.203-0.21289z" fill="url(#linearGradient22)" stroke-width="1.8382"/>
   <path d="m118.61 67.299-5.0918 6.3789-7.4023-3.4414-1.8184 7.957-8.1621 0.11133 1.8125 7.959-7.3047 3.6406 5.0859 6.3848-5 6.4492 7.3535 3.5449-1.709 7.9824 8.1621 0.00391 1.9238 7.9316 7.3574-3.5391 5.1758 6.3125 5.0898-6.3809 7.4023 3.4414 1.8203-7.957 8.1621-0.11132-1.8144-7.957 7.3047-3.6426-5.0859-6.3828 5.002-6.4512-7.3535-3.5449 1.709-7.9824-8.1621-0.001953-1.9258-7.9336-7.3555 3.5391-5.1758-6.3105zm0.03516 9.0332a19.053 19.053 0 0 1 19.053 19.053 19.053 19.053 0 0 1-19.053 19.053 19.053 19.053 0 0 1-19.055-19.053 19.053 19.053 0 0 1 19.055-19.053zm0 3.4766a15.577 15.577 0 0 0-15.576 15.576 15.577 15.577 0 0 0 15.576 15.576 15.577 15.577 0 0 0 15.576-15.576 15.577 15.577 0 0 0-15.576-15.576z" fill="url(#radialGradient17)" stroke-width="1.2619"/>
  </g>
  <path transform="matrix(.99468 .103 -.17063 .98534 0 0)" d="m212.89 39.427c-0.65297 0.13294-1.1419 0.70848-1.1419 1.4018l-4.4e-4 40.072c0 0.79242 0.63891 1.4302 1.4313 1.4302l7.391 4.24e-4c0.79242 0 1.4312-0.63968 1.4312-1.4321l-0.00115-40.07c0-0.79242-0.63698-1.4304-1.4294-1.4304l-7.3929-2.23e-4c-0.09905 0-0.19447 0.009107-0.28775 0.028099zm18.878-1.3629c-0.65296 0.13294-1.1419 0.70848-1.1419 1.4018l-4.4e-4 40.072c0 0.79242 0.63891 1.4302 1.4313 1.4302l7.391 4.24e-4c0.79242 0 1.4316-0.63773 1.4316-1.4301l4.4e-4 -40.072c0-0.79242-0.63891-1.4302-1.4313-1.4302l-7.391-4.25e-4c-0.09905 0-0.1964 0.009309-0.28968 0.028301zm18.998-0.61434c-0.65297 0.13294-1.1419 0.70848-1.1419 1.4018l0.00149 40.072c0 0.79242 0.63698 1.4304 1.4294 1.4304l7.3929 2.23e-4c0.79242 0 1.4296-0.63753 1.4296-1.4299l4.4e-4 -40.072c0-0.79242-0.63892-1.4302-1.4313-1.4302l-7.3909-4.24e-4c-0.09906 0-0.1964 0.009309-0.28968 0.0283zm-34.195 49.29a7.758 7.2641 36.744 0 0-6.2067 8.1851 7.758 7.2641 36.744 0 0 8.7467 6.6219 7.758 7.2641 36.744 0 0 6.2086-8.1853 7.758 7.2641 36.744 0 0-8.7487-6.6217zm18.88-1.3631a7.758 7.2641 36.744 0 0-6.2086 8.1853 7.758 7.2641 36.744 0 0 8.7487 6.6217 7.758 7.2641 36.744 0 0 6.2067-8.1851 7.758 7.2641 36.744 0 0-8.7467-6.6219zm18.998-0.61434a7.758 7.2641 36.744 0 0-6.2086 8.1853 7.758 7.2641 36.744 0 0 8.7487 6.6217 7.758 7.2641 36.744 0 0 6.2067-8.1851 7.758 7.2641 36.744 0 0-8.7467-6.6219z" fill="url(#linearGradient24)" stroke="#cde3e8" stroke-width="1.6092"/>
 </g>
</svg>
